:FULLY-SPECIFIED
:FORCE-ALL-JOINTS-BE-3DOF
:DEGREES
2039
root -3.24799 15.16 22.2835 898.196 -11.3613 172.913
lfemur -16.0562 9.06791 -23.2297
ltibia 55.6845 0 0
lfoot -25.8033 17.4296 0
ltoes -42.809 0 0
rfemur -59.7773 -15.8732 18.6464
rtibia 63.0369 0 0
rfoot -0.555362 5.13734 0
rtoes -10.0124 0 0
lowerback 15.4648 -0.466023 -9.05288
upperback -0.461925 -2.20236 1.72359
thorax -8.81857 -0.641376 7.55164
lowerneck -2.71252 -4.3268 -6.64629
upperneck 7.12061 -5.72094 1.79258
head 3.01118 -3.02043 1.48035
lclavicle 1.92069e-14 1.45519e-14 0
lhumerus -6.25234 -36.4155 86.6789
lradius 69.9349 0 0
lwrist -1.18741 0 0
lhand -27.783 38.0397 0
lfingers 7.12502 0 0
lthumb -1.16488 -652.198 0
rclavicle 1.92069e-14 1.45519e-14 0
rhumerus 5.6058 15.7234 -66.7322
rradius 116.456 0 0
rwrist -45.4721 0 0
rhand 41.4447 -386.876 0
rfingers 7.12502 0 0
rthumb 63.4192 324.921 0
2040
root -3.23917 15.1206 22.1077 897.894 -13.8377 172.665
lfemur -14.3874 7.74529 -23.1929
ltibia 55.4864 0 0
lfoot -26.9277 17.8402 0
ltoes -43.3499 0 0
rfemur -60.839 -16.5565 18.119
rtibia 60.8377 0 0
rfoot 0.581047 5.76953 0
rtoes -8.64539 0 0
lowerback 15.4178 -0.147264 -9.56478
upperback -0.395768 -1.8859 1.51941
thorax -8.77056 -0.482657 7.55585
lowerneck -2.49408 -5.32727 -7.42871
upperneck 7.32422 -7.10171 2.586
head 3.13762 -3.70599 1.77778
lclavicle 1.14732e-14 2.27857e-14 0
lhumerus -11.4502 -36.7764 88.5316
lradius 74.6497 0 0
lwrist 3.98011 0 0
lhand -30.5353 39.7059 0
lfingers 7.12502 0 0
lthumb -3.81143 -650.735 0
rclavicle 1.14732e-14 2.27857e-14 0
rhumerus 11.4411 14.4998 -64.1626
rradius 110.862 0 0
rwrist -40.7383 0 0
rhand 40.1352 -386.85 0
rfingers 7.12502 0 0
rthumb 62.1788 324.682 0
2041
root -3.23034 15.0812 21.9318 897.613 -15.974 172.455
lfemur -13.0784 6.60467 -23.1478
ltibia 55.4185 0 0
lfoot -28.0093 18.2695 0
ltoes -43.809 0 0
rfemur -61.5823 -17.1638 17.5514
rtibia 58.9437 0 0
rfoot 1.675 6.20913 0
rtoes -7.31323 0 0
lowerback 15.3749 0.13691 -10.0171
upperback -0.324054 -1.60114 1.34261
thorax -8.71599 -0.340813 7.56149
lowerneck -2.30655 -6.19999 -8.1188
upperneck 7.50719 -8.30837 3.26709
head 3.25726 -4.30472 2.03114
lclavicle 4.84251e-15 2.95859e-14 0
lhumerus -16.0521 -36.7944 90.121
lradius 78.7128 0 0
lwrist 8.64077 0 0
lhand -33.3796 41.4395 0
lfingers 7.12502 0 0
lthumb -6.54673 -649.197 0
rclavicle 4.84251e-15 2.95859e-14 0
rhumerus 16.2862 13.3801 -61.9502
rradius 105.654 0 0
rwrist -36.5164 0 0
rhand 38.603 -386.923 0
rfingers 7.12502 0 0
rthumb 60.7367 324.222 0
2042
root -3.22152 15.0418 21.7559 897.357 -17.7963 172.281
lfemur -12.0901 5.62707 -23.0936
ltibia 55.464 0 0
lfoot -29.0391 18.7173 0
ltoes -44.1942 0 0
rfemur -62.0355 -17.6976 16.9499
rtibia 57.3353 0 0
rfoot 2.72088 6.46954 0
rtoes -6.01445 0 0
lowerback 15.3343 0.389544 -10.4127
upperback -0.248174 -1.34484 1.19046
thorax -8.65569 -0.214178 7.56666
lowerneck -2.14707 -6.95552 -8.72372
upperneck 7.66884 -9.35527 3.847
head 3.36982 -4.82373 2.2447
lclavicle -7.69483e-16 3.50659e-14 0
lhumerus -20.1217 -36.4972 91.4733
lradius 82.1835 0 0
lwrist 12.8424 0 0
lhand -36.2817 43.2212 0
lfingers 7.12502 0 0
lthumb -9.33775 -647.602 0
rclavicle -7.69483e-16 3.50659e-14 0
rhumerus 20.2358 12.3547 -60.0658
rradius 100.785 0 0
rwrist -32.7518 0 0
rhand 36.856 -387.089 0
rfingers 7.12502 0 0
rthumb 59.1001 323.551 0
2043
root -3.21269 15.0024 21.58 897.129 -19.3308 172.141
lfemur -11.3833 4.79351 -23.0293
ltibia 55.6058 0 0
lfoot -30.0081 19.1834 0
ltoes -44.5136 0 0
rfemur -62.2269 -18.1599 16.3207
rtibia 55.9931 0 0
rfoot 3.71305 6.56416 0
rtoes -4.74761 0 0
lowerback 15.2944 0.613681 -10.7547
upperback -0.169519 -1.11374 1.06018
thorax -8.5905 -0.10109 7.56946
lowerneck -2.0128 -7.60441 -9.25062
upperneck 7.80851 -10.2567 4.33686
head 3.47499 -5.2701 2.42269
lclavicle -5.44719e-15 3.93392e-14 0
lhumerus -23.7226 -35.9126 92.6146
lradius 85.1214 0 0
lwrist 16.6329 0 0
lhand -39.2073 45.0313 0
lfingers 7.12502 0 0
lthumb -12.1515 -645.97 0
rclavicle -5.44719e-15 3.93392e-14 0
rhumerus 23.3848 11.4139 -58.4808
rradius 96.205 0 0
rwrist -29.3897 0 0
rhand 34.9026 -387.345 0
rfingers 7.12502 0 0
rthumb 57.2763 322.679 0
2044
root -3.20387 14.9631 21.4042 896.93 -20.6034 172.032
lfemur -10.919 4.08501 -22.9542
ltibia 55.8272 0 0
lfoot -30.9074 19.6675 0
ltoes -44.7752 0 0
rfemur -62.1849 -18.553 15.6703
rtibia 54.8976 0 0
rfoot 4.64589 6.50639 0
rtoes -3.51125 0 0
lowerback 15.2536 0.812364 -11.046
upperback -0.0894808 -0.904598 0.949022
thorax -8.52128 0.000115729 7.56801
lowerneck -1.90088 -8.15722 -9.70664
upperneck 7.92554 -11.0271 4.74784
head 3.57251 -5.65093 2.56935
lclavicle -9.27499e-15 4.25192e-14 0
lhumerus -26.9184 -35.0682 93.5712
lradius 87.586 0 0
lwrist 20.06 0 0
lhand -42.122 46.8505 0
lfingers 7.12502 0 0
lthumb -14.9549 -644.322 0
rclavicle -9.27499e-15 4.25192e-14 0
rhumerus 25.8278 10.548 -57.1661
rradius 91.8641 0 0
rwrist -26.3755 0 0
rhand 32.7509 -387.686 0
rfingers 7.12502 0 0
rthumb 55.2726 321.619 0
2045
root -3.19504 14.9237 21.2283 896.763 -21.6404 171.952
lfemur -10.658 3.48259 -22.8673
ltibia 56.1111 0 0
lfoot -31.7279 20.1693 0
ltoes -44.987 0 0
rfemur -61.9378 -18.8793 15.0048
rtibia 54.0293 0 0
rfoot 5.51378 6.30965 0
rtoes -2.3039 0 0
lowerback 15.2102 0.988639 -11.2896
upperback -0.00945111 -0.714153 0.854226
thorax -8.44887 0.0911032 7.56039
lowerneck -1.80846 -8.62452 -10.0989
upperneck 8.01924 -11.6808 5.09108
head 3.66208 -5.97332 2.68893
lclavicle -1.23373e-14 4.47193e-14 0
lhumerus -29.7729 -33.9918 94.3694
lradius 89.6369 0 0
lwrist 23.1717 0 0
lhand -44.9916 48.6592 0
lfingers 7.12502 0 0
lthumb -17.715 -642.677 0
rclavicle -1.23373e-14 4.47193e-14 0
rhumerus 27.6595 9.74734 -56.0928
rradius 87.7134 0 0
rwrist -23.6544 0 0
rhand 30.4093 -388.108 0
rfingers 7.12502 0 0
rthumb 53.0961 320.379 0
2046
root -3.18621 14.8843 21.0524 896.63 -22.4677 171.898
lfemur -10.5612 2.96727 -22.7678
ltibia 56.4406 0 0
lfoot -32.4606 20.6885 0
ltoes -45.1571 0 0
rfemur -61.5139 -19.1409 14.3307
rtibia 53.3689 0 0
rfoot 6.31109 5.98732 0
rtoes -1.12411 0 0
lowerback 15.1626 1.14555 -11.4886
upperback 0.0691788 -0.539158 0.773033
thorax -8.37412 0.173536 7.54471
lowerneck -1.73268 -9.01685 -10.4347
upperneck 8.08897 -12.232 5.37772
head 3.74341 -6.24436 2.78568
lclavicle -1.47184e-14 4.60531e-14 0
lhumerus -32.3497 -32.7111 95.0354
lradius 91.3336 0 0
lwrist 26.0158 0 0
lhand -47.7818 50.438 0
lfingers 7.12502 0 0
lthumb -20.3988 -641.055 0
rclavicle -1.47184e-14 4.60531e-14 0
rhumerus 28.9748 9.00226 -55.2321
rradius 83.7037 0 0
rwrist -21.1718 0 0
rhand 27.8858 -388.607 0
rfingers 7.12502 0 0
rthumb 50.754 318.971 0
2047
root -3.17739 14.8449 20.8766 896.535 -23.1115 171.869
lfemur -10.5894 2.52008 -22.6549
ltibia 56.7989 0 0
lfoot -33.0965 21.225 0
ltoes -45.2935 0 0
rfemur -60.9414 -19.3401 13.6542
rtibia 52.8967 0 0
rfoot 7.0322 5.55282 0
rtoes 0.0295811 0 0
lowerback 15.1091 1.28613 -11.6458
upperback 0.145017 -0.376362 0.702687
thorax -8.29786 0.249079 7.51908
lowerneck -1.67069 -9.34477 -10.721
upperneck 8.13404 -12.6952 5.61891
head 3.81623 -6.47113 2.86383
lclavicle -1.65028e-14 4.66339e-14 0
lhumerus -34.7123 -31.2539 95.5953
lradius 92.7356 0 0
lwrist 28.6401 0 0
lhand -50.4583 52.1674 0
lfingers 7.12502 0 0
lthumb -22.9732 -639.476 0
rclavicle -1.65028e-14 4.66339e-14 0
rhumerus 29.8683 8.3031 -54.555
rradius 79.7856 0 0
rwrist -18.8729 0 0
rhand 25.1887 -389.177 0
rfingers 7.12502 0 0
rthumb 48.2537 317.405 0
2048
root -3.16856 14.8055 20.7007 896.48 -23.5979 171.861
lfemur -10.7037 2.12203 -22.5277
ltibia 57.169 0 0
lfoot -33.6266 21.7783 0
ltoes -45.4042 0 0
rfemur -60.2489 -19.4792 12.9816
rtibia 52.5934 0 0
rfoot 7.67148 5.01955 0
rtoes 1.15863 0 0
lowerback 15.0481 1.41344 -11.7643
upperback 0.216673 -0.222514 0.640429
thorax -8.22094 0.319395 7.4816
lowerneck -1.61965 -9.61885 -10.965
upperneck 8.1538 -13.0846 5.82581
head 3.88025 -6.66074 2.92763
lclavicle -1.77748e-14 4.65754e-14 0
lhumerus -36.9245 -29.6478 96.0755
lradius 93.9024 0 0
lwrist 31.0925 0 0
lhand -52.9868 53.8278 0
lfingers 7.12502 0 0
lthumb -25.4053 -637.96 0
rclavicle -1.77748e-14 4.65754e-14 0
rhumerus 30.4347 7.64017 -54.0326
rradius 75.9099 0 0
rwrist -16.703 0 0
rhand 22.3262 -389.816 0
rfingers 7.12502 0 0
rthumb 45.6022 315.691 0
2049
root -3.15974 14.7661 20.5248 896.466 -23.953 171.871
lfemur -10.8648 1.75414 -22.3853
ltibia 57.5339 0 0
lfoot -34.0419 22.3483 0
ltoes -45.4973 0 0
rfemur -59.4645 -19.5604 12.3193
rtibia 52.4395 0 0
rfoot 8.2233 4.4009 0
rtoes 2.26448 0 0
lowerback 14.9779 1.53052 -11.847
upperback 0.282755 -0.0743628 0.583501
thorax -8.1442 0.386149 7.43038
lowerneck -1.57668 -9.84963 -11.1739
upperneck 8.14756 -13.4146 6.00955
head 3.93517 -6.82027 2.98132
lclavicle -1.86188e-14 4.59908e-14 0
lhumerus -39.0498 -27.9206 96.5022
lradius 94.8936 0 0
lwrist 33.4209 0 0
lhand -55.333 55.3999 0
lfingers 7.12502 0 0
lthumb -27.6619 -636.526 0
rclavicle -1.86188e-14 4.59908e-14 0
rhumerus 30.7689 7.00381 -53.636
rradius 72.0273 0 0
rwrist -14.6074 0 0
rhand 19.3066 -390.518 0
rfingers 7.12502 0 0
rthumb 42.807 313.841 0
2050
root -3.15091 14.7267 20.3489 896.497 -24.2028 171.899
lfemur -11.0336 1.39744 -22.2269
ltibia 57.8769 0 0
lfoot -34.3334 22.9347 0
ltoes -45.5808 0 0
rfemur -58.6165 -19.5859 11.6735
rtibia 52.4156 0 0
rfoot 8.68205 3.71029 0
rtoes 3.34861 0 0
lowerback 14.897 1.6404 -11.8969
upperback 0.341871 0.071342 0.529144
thorax -8.0685 0.451004 7.36351
lowerneck -1.53896 -10.0477 -11.3548
upperneck 8.11468 -13.6996 6.18128
head 3.98072 -6.95683 3.02914
lclavicle -1.91193e-14 4.49938e-14 0
lhumerus -41.152 -26.1 96.9015
lradius 95.7687 0 0
lwrist 35.673 0 0
lhand -57.4626 56.8641 0
lfingers 7.12502 0 0
lthumb -29.7102 -635.195 0
rclavicle -1.91193e-14 4.49938e-14 0
rhumerus 30.9655 6.38436 -53.3363
rradius 68.0885 0 0
rwrist -12.5315 0 0
rhand 16.1379 -391.28 0
rfingers 7.12502 0 0
rthumb 39.875 311.864 0
2051
root -3.14209 14.6873 20.1731 896.576 -24.3735 171.941
lfemur -11.171 1.03294 -22.0517
ltibia 58.1809 0 0
lfoot -34.4921 23.5372 0
ltoes -45.6626 0 0
rfemur -57.7334 -19.558 11.0506
rtibia 52.5021 0 0
rfoot 9.0421 2.9611 0
rtoes 4.41247 0 0
lowerback 14.8036 1.74614 -11.9171
upperback 0.392629 0.217851 0.474602
thorax -7.99468 0.515625 7.27909
lowerneck -1.50361 -10.2236 -11.5149
upperneck 8.05447 -13.9539 6.35216
head 4.01661 -7.0775 3.07535
lclavicle -1.93604e-14 4.36977e-14 0
lhumerus -43.2946 -24.2137 97.2998
lradius 96.5871 0 0
lwrist 37.8968 0 0
lhand -59.3414 58.201 0
lfingers 7.12502 0 0
lthumb -31.517 -633.986 0
rclavicle -1.93604e-14 4.36977e-14 0
rhumerus 31.1193 5.77214 -53.1046
rradius 64.0442 0 0
rwrist -10.4204 0 0
rhand 12.8285 -392.096 0
rfingers 7.12502 0 0
rthumb 36.8137 309.771 0
